<svg width="30" height="30" viewBox="0 0 30 30" fill="none" xmlns="http://www.w3.org/2000/svg">
<rect width="30" height="30" rx="5.85938" fill="white"/>
<path d="M5.05699 14.9614C5.05699 15.073 5.06564 15.189 5.07857 15.3005C5.16935 15.9616 5.50644 16.5927 6.08118 17.0304C6.65592 17.4683 7.35595 17.6357 8.02148 17.5499C8.69128 17.4641 9.32648 17.1249 9.76728 16.5583V16.5539C10.1346 16.0774 10.3118 15.5109 10.3118 14.9528H12.3687C12.3687 15.9487 12.0533 16.949 11.3964 17.7988H11.3921C10.6013 18.8162 9.47345 19.4215 8.28936 19.576C7.101 19.7306 5.85208 19.4344 4.82795 18.6488C3.80378 17.8676 3.19447 16.7429 3.03889 15.5623C3.01298 15.3649 3 15.1632 3 14.9614H5.05699ZM10.5408 11.2783C10.7266 11.4199 10.8995 11.5702 11.0594 11.7333C10.571 12.3257 10.2124 13.0253 10.0309 13.7937C9.86234 13.4546 9.61166 13.1456 9.2876 12.8965C8.85118 12.5618 8.34554 12.3858 7.83564 12.36V10.3081C8.80792 10.3425 9.76728 10.6858 10.5408 11.2783Z" fill="black"/>
<path d="M25.1729 18.6402C26.1971 17.8546 26.8065 16.7343 26.962 15.5537C27.1132 14.3732 26.8151 13.1327 26.0286 12.1153H26.0243C25.2335 11.0979 24.1056 10.4927 22.9215 10.3381C21.7332 10.1836 20.4843 10.4798 19.4601 11.2653C18.4359 12.0467 17.8266 13.1713 17.6711 14.3518C17.6451 14.5536 17.6322 14.7553 17.6322 14.9571H19.6891C19.6891 14.8411 19.6978 14.7295 19.7107 14.6137C19.7972 13.9525 20.1386 13.3258 20.7133 12.8837C21.2881 12.4458 21.9881 12.2785 22.6536 12.3643C23.3234 12.4502 23.9586 12.7893 24.3994 13.3602H24.3952C24.8402 13.9311 25.0088 14.6265 24.918 15.2876C24.8316 15.9487 24.4902 16.5797 23.9155 17.0176C23.345 17.4597 22.645 17.6229 21.9752 17.5369C21.3097 17.4511 20.6787 17.112 20.2337 16.5411V16.5453C20.1559 16.4467 20.0867 16.3393 20.0262 16.232C19.8317 16.9746 19.4731 17.6529 18.9891 18.2238C19.8361 19.0738 21.0115 19.6018 22.3123 19.6018C22.3987 19.6018 22.4807 19.5975 22.5672 19.5932V19.5975C23.4833 19.5502 24.3908 19.2369 25.1729 18.6402Z" fill="black"/>
<path d="M15.0091 19.6062C14.0109 19.6062 13.0041 19.2886 12.1527 18.6403C11.9842 18.5073 11.8243 18.3699 11.6774 18.224C12.1614 17.653 12.5244 16.9747 12.7188 16.2278C12.8874 16.5284 13.1164 16.7987 13.4059 17.0177C13.8856 17.3826 14.4474 17.5628 15.0091 17.5586V19.6062Z" fill="black"/>
<path d="M18.3366 11.6903C17.5847 10.9304 16.6211 10.4755 15.6142 10.3424C15.4153 10.3167 15.2165 10.3037 15.0178 10.3037H15.0091V12.3471H15.0264C15.1345 12.3513 15.2425 12.3557 15.3462 12.3685C16.016 12.4587 16.6513 12.7935 17.092 13.3644H17.0877C17.1699 13.4675 17.239 13.5748 17.2994 13.6821C17.4939 12.9395 17.8526 12.2613 18.3366 11.6903Z" fill="black"/>
<path d="M15.0091 12.3429C14.8967 12.3429 14.7801 12.3514 14.6677 12.3644C14.0022 12.4502 13.3713 12.7893 12.9262 13.3603C12.5589 13.8325 12.3817 14.3948 12.3817 14.9528H10.3247C10.3247 13.9612 10.6445 12.9653 11.3014 12.1154L11.3834 12.0038C12.2435 10.9649 13.5485 10.2996 15.0048 10.2996H15.0091V12.3429Z" fill="black"/>
<path d="M17.8656 18.6446C18.8897 17.859 19.499 16.7386 19.6503 15.5581C19.6762 15.3607 19.6935 15.1589 19.6935 14.9572H17.6365C17.6322 15.0688 17.6279 15.1846 17.6107 15.2963C17.5241 15.9574 17.1828 16.5841 16.608 17.0262C16.1414 17.3825 15.5925 17.5585 15.0437 17.5671H15.0091V19.6104H15.048C15.1215 19.6104 15.1907 19.6062 15.2598 19.6018C16.1759 19.5546 17.0834 19.2413 17.8656 18.6446Z" fill="black"/>
<path fill-rule="evenodd" clip-rule="evenodd" d="M8.68266 12.3601L12.6108 7.05005H10.0396L6.11143 12.3601H8.68266Z" fill="black"/>
<path fill-rule="evenodd" clip-rule="evenodd" d="M13.6478 12.4245L17.6321 7.05005H15.0609L11.0766 12.4245H13.6478Z" fill="black"/>
<path fill-rule="evenodd" clip-rule="evenodd" d="M10.8391 9.11053L4.12362 9.10618L5.64908 7.05005L12.3688 7.05429L10.8391 9.11053Z" fill="black"/>
<path fill-rule="evenodd" clip-rule="evenodd" d="M22.2647 22.8L26.249 17.4298H23.6778L19.6935 22.8H22.2647Z" fill="black"/>
</svg>
