<svg width="30" height="30" viewBox="0 0 30 30" fill="none" xmlns="http://www.w3.org/2000/svg">
<rect width="30" height="30" rx="5.85938" fill="white"/>
<g clip-path="url(#clip0_26_3)">
<path d="M15.5055 26.3519C15.6568 26.3814 15.8082 26.3662 15.965 26.3744C15.9439 26.3956 15.9217 26.3907 15.9026 26.392C15.2283 26.4433 14.5539 26.4384 13.8819 26.3632C13.4601 26.3161 13.037 26.276 12.6204 26.1939C12.156 26.1025 11.7108 25.9537 11.2716 25.7795C10.8056 25.5943 10.3402 25.4097 9.89493 25.1808C8.69993 24.5663 7.65154 23.7682 6.73952 22.7996C6.61337 22.6654 6.47938 22.5382 6.35494 22.4024C5.94854 21.9591 5.60726 21.4711 5.31098 20.9533C5.07198 20.5356 4.86094 20.1042 4.65671 19.6699C4.55307 19.45 4.42351 19.2419 4.34816 19.0087C4.31202 18.8971 4.29327 18.7821 4.266 18.6691C4.2227 18.4902 4.14292 18.3272 4.06927 18.1599C3.98506 17.9688 3.95028 17.7621 3.90119 17.5607C3.79925 17.1406 3.72254 16.7156 3.66969 16.2872C3.59843 15.7094 3.56332 15.13 3.5773 14.548C3.58616 14.1653 3.61139 13.7837 3.64753 13.4027C3.65844 13.2878 3.70378 13.1811 3.72322 13.0685C3.75902 12.8594 3.79618 12.6504 3.83505 12.4417C3.90562 12.063 4.00143 11.69 4.11257 11.3206C4.18588 11.0768 4.26225 10.834 4.3543 10.5964C4.68842 9.73609 5.13301 8.93604 5.72318 8.21384C6.99693 6.65549 8.56151 5.4473 10.3879 4.55383C10.7367 4.38322 11.0872 4.20399 11.466 4.11223C11.8274 4.0251 12.1765 3.90451 12.5314 3.80082C12.6876 3.75511 12.8396 3.70243 13.0026 3.68454C13.0486 3.67957 13.0878 3.70078 13.1363 3.69713C13.3002 3.68554 13.4516 3.62889 13.6095 3.59708C13.7527 3.56826 13.8969 3.57456 14.0411 3.57456C14.0411 3.58416 14.0418 3.59344 14.0421 3.60305C13.948 3.60305 13.8539 3.60305 13.7602 3.60305C13.7435 3.60305 13.7264 3.60238 13.7097 3.60338C13.6824 3.60503 13.6402 3.59476 13.6398 3.6322C13.6391 3.67593 13.6841 3.65572 13.7073 3.65539C13.9542 3.65241 14.1959 3.67759 14.4291 3.76107C14.4485 3.76803 14.4721 3.76836 14.4929 3.76637C14.677 3.74947 14.8641 3.74749 15.0438 3.71005C15.275 3.66168 15.4966 3.71999 15.723 3.73821C15.6579 3.74351 15.5931 3.74881 15.528 3.75411C15.5276 3.75842 15.5273 3.76306 15.5269 3.76736C15.7935 3.80811 16.0602 3.84853 16.3268 3.88928C16.3281 3.88364 16.3295 3.87801 16.3312 3.87205C16.2746 3.85416 16.2184 3.83627 16.1604 3.81772C16.2883 3.77432 17.0646 4.03835 17.2453 4.20101C17.1546 4.16325 17.0649 4.12415 16.9735 4.08804C16.876 4.04962 16.7782 4.01086 16.6786 3.97773C16.5818 3.94526 16.4857 3.90849 16.3834 3.89358C16.3977 3.9774 16.4727 3.98535 16.5324 4.01218C16.5716 4.02974 16.6139 4.04266 16.6497 4.06519C16.7594 4.13509 16.8832 4.15264 17.0083 4.1765C17.1014 4.19439 17.1877 4.24441 17.2821 4.26893C17.4232 4.30537 17.5613 4.35141 17.7011 4.39316C17.7093 4.39548 17.7192 4.39316 17.7315 4.39316C17.727 4.33949 17.6755 4.33054 17.6353 4.2845C17.7223 4.29808 17.7925 4.31299 17.8484 4.35108C17.9759 4.43755 18.1252 4.46438 18.2674 4.51142C18.3625 4.54323 18.4594 4.56973 18.5555 4.59888C18.5668 4.6022 18.5848 4.60518 18.5876 4.61247C18.6251 4.71417 18.7297 4.7251 18.8102 4.76022C19.8211 5.20182 20.7662 5.74877 21.64 6.41166C21.6625 6.42889 21.6836 6.4481 21.7171 6.43817C21.7341 6.43286 21.7498 6.44115 21.761 6.45539C21.9472 6.68464 22.1957 6.84929 22.415 7.04375C23.3583 7.8809 24.1773 8.81644 24.8227 9.89113C25.2035 10.5255 25.5199 11.1888 25.7654 11.8835C25.8332 12.0749 25.8936 12.2691 25.957 12.4622C25.9611 12.4748 25.9611 12.4887 25.9638 12.5089C25.8997 12.4758 25.8963 12.4013 25.8298 12.3648C25.8677 12.491 25.9038 12.606 25.9532 12.7262C25.9625 12.709 25.9686 12.6968 25.9795 12.6762C26.0286 12.7829 26.0518 12.8909 26.0804 12.9962C26.2482 13.6111 26.3504 14.2366 26.3985 14.8703C26.4537 15.5985 26.4275 16.3246 26.3279 17.0485C26.2529 17.5951 26.1227 18.1291 25.9792 18.6618C25.8431 19.1674 25.6444 19.6477 25.4091 20.1152C25.3484 20.2354 25.2478 20.3332 25.1756 20.4488C25.033 20.676 24.9229 20.9199 24.7842 21.1478C24.5895 21.4675 24.3508 21.757 24.1091 22.0442C23.9891 22.1867 23.8875 22.3427 23.7538 22.4752C23.6311 22.5971 23.492 22.7005 23.3645 22.8168C23.2919 22.883 23.2397 22.9632 23.1729 23.0325C22.9144 23.3005 22.6219 23.5307 22.3321 23.7646C22.1991 23.8716 22.0542 23.9667 21.9284 24.0783C21.6509 24.3251 21.3407 24.5282 21.029 24.7253C20.3056 25.1825 19.5483 25.5764 18.711 25.8079C18.4948 25.8679 18.2848 25.9507 18.0686 26.012C18.0366 26.021 18.0035 26.0263 17.9705 26.0326C17.8791 26.0494 17.785 26.0548 17.7042 26.1097C17.6803 26.126 17.6452 26.1296 17.6149 26.1326C17.2899 26.1654 16.9712 26.2379 16.6466 26.2714C16.6012 26.276 16.5559 26.2843 16.5105 26.2843C16.1884 26.2843 15.8699 26.335 15.5488 26.3466C15.5344 26.3473 15.5205 26.3496 15.5065 26.3512L15.5055 26.3519ZM17.8699 16.421C17.8481 16.5224 17.9449 16.5708 17.9742 16.649C17.964 16.5618 17.9398 16.4813 17.8678 16.4224C17.8665 16.3998 17.8556 16.3727 17.8849 16.3608C17.9135 16.3492 17.9285 16.3723 17.9425 16.3909C17.9555 16.4075 17.9773 16.4267 17.9759 16.4432C17.9694 16.5112 18.0185 16.5546 18.0444 16.6079C18.068 16.6563 18.0922 16.7043 18.116 16.7527C18.1631 16.8477 18.1948 16.9521 18.1812 17.0525C18.1723 17.1171 18.1992 17.1528 18.2176 17.2029C18.2463 17.2807 18.3036 17.3427 18.3312 17.4192C18.3816 17.5597 18.4242 17.7028 18.4464 17.8505C18.4546 17.9055 18.4652 17.9612 18.4348 18.0145C18.4239 18.0337 18.4294 18.0556 18.4335 18.0761C18.4478 18.1454 18.4543 18.2116 18.4157 18.2789C18.3912 18.3213 18.3915 18.373 18.4028 18.4227C18.412 18.4637 18.4202 18.5048 18.4249 18.5466C18.4467 18.7334 18.3915 18.9163 18.3925 19.1021C18.3925 19.1154 18.384 19.1286 18.3803 19.1422C18.3312 19.3277 18.2187 19.4904 18.1754 19.6779C18.1467 19.8015 18.0683 19.9098 18.0574 20.0532C18.1546 19.9008 18.2357 19.7557 18.2933 19.5901C18.3169 19.6554 18.2817 19.7047 18.28 19.7574C18.2742 19.9297 18.1556 20.0711 18.1419 20.2414C18.1413 20.2503 18.1372 20.2609 18.1307 20.2666C18.0727 20.3173 18.0455 20.3885 18.0018 20.4514C17.9701 20.4203 17.9807 20.3892 17.9933 20.3587C18.0039 20.3328 18.0175 20.3083 18.0288 20.2828C18.0339 20.2712 18.0451 20.2556 18.024 20.2487C18.0114 20.2444 17.9967 20.255 17.996 20.2653C17.9906 20.3378 17.933 20.3815 17.9012 20.4388C17.8474 20.5362 17.8245 20.6545 17.6834 20.6744C17.6694 20.6764 17.6622 20.7065 17.6438 20.6923C17.6309 20.6823 17.6343 20.6625 17.6445 20.6469C17.6766 20.5743 17.7485 20.5246 17.7754 20.4425C17.7141 20.4657 17.6438 20.582 17.6455 20.6489C17.5903 20.6704 17.4921 20.8579 17.4965 20.9351C17.5184 20.9222 17.5392 20.9013 17.5647 20.9281C17.578 20.9421 17.5866 20.958 17.5702 20.9702C17.4781 21.0385 17.4505 21.16 17.3315 21.2131C17.218 21.2637 17.1222 21.3515 17.0172 21.4211C16.9923 21.4377 16.9623 21.4655 16.9326 21.4522C16.8794 21.4287 16.8515 21.4622 16.8198 21.4877C16.6002 21.6649 16.3793 21.8398 16.1369 21.9876C16.111 22.0035 16.0864 22.0247 16.0537 22.0273C15.9013 22.0396 15.7833 22.1115 15.6899 22.2261C15.6534 22.2705 15.6122 22.3007 15.5494 22.3129C15.4731 22.3278 15.3981 22.3553 15.3265 22.3894C15.1369 22.4792 14.9402 22.5521 14.7424 22.6227C14.7015 22.6372 14.6644 22.6352 14.6251 22.616C14.5447 22.5763 14.4629 22.5796 14.3841 22.62C14.3367 22.6442 14.2876 22.6621 14.2358 22.6714C14.0783 22.6992 13.9238 22.7495 13.7602 22.7376C13.7329 22.7356 13.6981 22.735 13.6899 22.7717C13.6804 22.8148 13.6466 22.8175 13.6129 22.8184C13.572 22.8198 13.5321 22.8231 13.4915 22.8317C13.377 22.8562 13.2617 22.8787 13.1465 22.9006C13.1233 22.9049 13.0974 22.9125 13.0534 22.8824C13.1417 22.8887 13.1298 22.8357 13.1451 22.8002C13.1216 22.7856 13.0998 22.7926 13.079 22.7956C12.929 22.8175 12.7776 22.8168 12.6265 22.8201C12.469 22.8234 12.3088 22.8022 12.1561 22.8599C12.1458 22.8638 12.1325 22.8602 12.1206 22.8595C11.8356 22.8393 11.5522 22.8095 11.2703 22.7631C11.0766 22.7313 10.8895 22.6876 10.7255 22.573C10.7599 22.5451 10.8107 22.5842 10.8455 22.5481C10.8172 22.5173 10.7814 22.5123 10.7456 22.5097C10.6873 22.5054 10.6303 22.4928 10.5799 22.467C10.5294 22.4411 10.4779 22.4312 10.422 22.4255C10.2539 22.4093 10.0869 22.3808 9.94505 22.2857C9.79469 22.185 9.61297 22.1807 9.45068 22.1181C9.43466 22.1122 9.41182 22.1165 9.39443 22.1224C9.35079 22.1367 9.31022 22.1314 9.26794 22.1171C9.17009 22.084 9.07906 22.037 8.98803 21.9906C8.97234 21.9826 8.94643 21.9747 8.95359 21.9455C9.0078 21.926 9.05656 21.9803 9.12406 21.9548C9.00201 21.8968 8.89461 21.8388 8.79028 21.7739C8.69755 21.7163 8.59697 21.6765 8.479 21.6659C8.35592 21.655 8.26148 21.5655 8.17659 21.4784C8.16125 21.4625 8.18443 21.4218 8.14693 21.4148C8.05487 21.3969 7.98396 21.3263 7.88679 21.3207C7.8486 21.3184 7.732 21.1988 7.73677 21.1624C7.74496 21.1001 7.69143 21.0848 7.66006 21.055C7.63006 21.0262 7.60415 20.9709 7.54244 21.0116C7.53596 21.0159 7.51482 21.0057 7.50425 20.9977C7.45141 20.9576 7.39242 20.9235 7.35287 20.8695C7.24002 20.7145 7.09171 20.5909 6.9642 20.4494C6.92465 20.4054 6.88749 20.3573 6.82442 20.3212C6.83805 20.3643 6.86908 20.3809 6.88783 20.406C6.90215 20.4256 6.92022 20.4451 6.91102 20.469C6.88715 20.529 6.92534 20.5594 6.96659 20.5896C6.99557 20.6108 7.01466 20.6416 7.04023 20.6651C7.10467 20.7254 7.11763 20.8218 7.18752 20.8732C7.37674 21.013 7.53869 21.1839 7.72996 21.3214C7.78041 21.3575 7.83837 21.4098 7.84997 21.4635C7.86258 21.5218 7.89531 21.5394 7.93554 21.5582C8.03851 21.6066 8.14897 21.6421 8.24 21.7126C8.26216 21.7299 8.30035 21.7358 8.29796 21.7756L8.29967 21.7742C8.26319 21.7633 8.22432 21.757 8.19091 21.7405C7.92361 21.6086 7.65768 21.4734 7.43743 21.27C7.29491 21.1385 7.15411 21.0053 7.01125 20.8748C6.94511 20.8145 6.85237 20.7867 6.79816 20.7112C6.76612 20.6661 6.72213 20.6446 6.65838 20.6452C6.71702 20.7297 6.77498 20.8099 6.80464 20.9043C6.8101 20.9212 6.82783 20.9457 6.79953 20.9493C6.7327 20.9576 6.77362 20.9812 6.79135 20.9961C6.82203 21.0219 6.85578 21.0444 6.88954 21.0663C7.00477 21.1412 7.10944 21.2343 7.17115 21.3499C7.23559 21.4698 7.33583 21.5526 7.4197 21.652C7.45925 21.6987 7.50664 21.7398 7.54039 21.7898C7.5663 21.8282 7.59392 21.8614 7.63347 21.8842C7.68359 21.9134 7.72109 21.9558 7.76337 21.9932C7.83428 22.0562 7.87486 22.1506 7.99043 22.1701C8.04601 22.1794 8.08556 22.2447 8.11283 22.301C8.12204 22.3199 8.12886 22.3434 8.1442 22.355C8.28978 22.4656 8.43673 22.5743 8.58367 22.6826C8.5939 22.6902 8.60856 22.7018 8.62118 22.6863C8.6314 22.6737 8.62731 22.6584 8.61777 22.6475C8.60379 22.6319 8.58776 22.6177 8.5714 22.6041C8.47628 22.5259 8.38013 22.4487 8.28535 22.3696C8.26285 22.3507 8.23455 22.3315 8.26489 22.2944C8.2891 22.2649 8.30512 22.2301 8.35388 22.2579C8.37399 22.2695 8.3982 22.2751 8.42138 22.2811C8.56765 22.3189 8.71357 22.3573 8.83801 22.4464C8.8554 22.4587 8.88711 22.4766 8.88506 22.4855C8.86563 22.5697 8.94507 22.5594 8.9836 22.5839C9.00883 22.6001 9.04019 22.6091 9.06235 22.6306C9.0736 22.6415 9.09372 22.6468 9.09304 22.6667C9.09201 22.6906 9.05758 22.6727 9.04837 22.7058C9.21373 22.7416 9.32726 22.8536 9.44625 22.9573C9.50694 23.0103 9.5649 23.0659 9.62525 23.1196C9.64263 23.1352 9.66241 23.1567 9.68287 23.159C9.80322 23.1709 9.90311 23.2342 10.0115 23.2753C10.1206 23.3167 10.2427 23.3419 10.3341 23.4071C10.4629 23.4992 10.6044 23.5658 10.7398 23.6443C10.7667 23.6599 10.7991 23.694 10.8284 23.6596C10.8584 23.6245 10.8213 23.5943 10.7991 23.5691C10.7698 23.5357 10.7357 23.5059 10.703 23.475C10.6869 23.4601 10.6651 23.4499 10.6573 23.4148C10.7408 23.4449 10.8179 23.4654 10.8901 23.5016C11.0354 23.5741 11.1878 23.6294 11.3439 23.6768C11.4789 23.7179 11.6242 23.7205 11.7534 23.7825C11.8311 23.8196 11.9147 23.8398 11.9965 23.8656C12.0122 23.8706 12.0333 23.8756 12.0248 23.8974C12.0159 23.9213 11.9968 23.907 11.9825 23.9017C11.9423 23.8868 11.9034 23.8683 11.8628 23.855C11.7514 23.8186 11.6388 23.7861 11.5181 23.7884C11.602 23.8272 11.6886 23.857 11.7759 23.8855C11.9351 23.9372 12.0933 24.0087 12.2611 24.0084C12.4186 24.0084 12.5311 24.127 12.6828 24.1257C12.6968 24.1257 12.7087 24.1389 12.7067 24.1555C12.7043 24.1777 12.6852 24.1787 12.6688 24.178C12.6283 24.1764 12.5877 24.1714 12.5468 24.1701C12.3743 24.1645 12.2263 24.0651 12.0551 24.0502C11.9774 24.0435 11.8983 24.022 11.826 23.9928C11.6627 23.9266 11.5018 23.854 11.3337 23.7994C11.2099 23.7593 11.0892 23.7096 10.96 23.6831C10.9836 23.7026 11.0091 23.7185 11.0361 23.7308C11.4646 23.9256 11.9102 24.074 12.362 24.2098C12.5754 24.2738 12.78 24.2784 12.989 24.2171C13.1369 24.1737 13.2808 24.1538 13.4383 24.1804C13.7121 24.2267 13.9889 24.2592 14.2658 24.2844C14.4025 24.2966 14.529 24.3553 14.6678 24.3506C14.7445 24.348 14.8215 24.35 14.8982 24.3516C14.9248 24.3523 14.9705 24.3384 14.9719 24.3702C14.9732 24.4007 14.9289 24.4152 14.8948 24.4182C14.8761 24.4199 14.8566 24.4156 14.8375 24.4142C14.591 24.398 14.3439 24.3771 14.097 24.4026C13.9416 24.4189 13.7915 24.3904 13.6415 24.3682C13.5331 24.3523 13.4274 24.351 13.32 24.3602C13.2945 24.3626 13.261 24.3698 13.2556 24.3967C13.2494 24.4265 13.2829 24.4361 13.3057 24.4487C13.3357 24.4653 13.3684 24.4729 13.4025 24.4715C13.4942 24.4679 13.5846 24.4772 13.6753 24.4878C13.7206 24.4931 13.7667 24.4974 13.8192 24.4855C13.7946 24.4636 13.7663 24.4739 13.7534 24.4503C13.781 24.4295 13.813 24.4368 13.8427 24.4374C14.3984 24.4464 14.9531 24.506 15.5095 24.458C15.5143 24.4576 15.5191 24.458 15.5239 24.4586C15.7069 24.4941 15.8945 24.4394 16.0793 24.4928C16.1635 24.5173 16.2603 24.4924 16.351 24.4825C16.6302 24.4517 16.9033 24.3824 17.1815 24.3496C17.3435 24.3304 17.5047 24.3168 17.6605 24.2688C17.7236 24.2493 17.7911 24.239 17.8494 24.1963C17.7979 24.1668 17.7594 24.2287 17.7076 24.1986C17.8743 24.1114 18.0564 24.074 18.2217 23.9935C18.1665 23.9998 18.1126 24.0114 18.0594 24.0263C17.8573 24.0836 17.6708 24.186 17.4468 24.1797C17.2981 24.1757 17.1447 24.2125 17.0042 24.2652C16.726 24.3692 16.4301 24.3821 16.143 24.4384C16.1321 24.4404 16.1185 24.4417 16.1127 24.4278C16.1147 24.4093 16.1536 24.4179 16.141 24.3864C16.0833 24.3831 16.0247 24.3795 15.9661 24.3758C16.0254 24.352 16.0854 24.339 16.144 24.3215C16.2947 24.2771 16.292 24.2821 16.4226 24.3357C16.4621 24.352 16.5211 24.3268 16.5702 24.3165C16.6094 24.3086 16.5856 24.2821 16.5838 24.2609C16.5821 24.2413 16.6026 24.2436 16.6159 24.2423C16.8927 24.2138 17.1679 24.1741 17.442 24.1277C17.6878 24.0863 17.9309 24.0343 18.1702 23.966C18.2623 23.9398 18.3533 23.9107 18.4638 23.8769C18.4225 23.9276 18.4089 23.9647 18.4597 24.0008C18.3373 24.0419 18.2193 24.0654 18.1014 24.1148C18.2268 24.1542 18.3322 24.1181 18.441 24.0853C18.5535 24.0515 18.652 23.9862 18.7666 23.9587C18.8457 23.9398 18.9241 23.918 19.0028 23.8978C19.0168 23.8941 19.0349 23.8915 19.0356 23.8752C19.0376 23.8252 19.0782 23.8199 19.1136 23.8063C19.2251 23.7643 19.3417 23.7335 19.444 23.6702C19.4607 23.6596 19.4812 23.6467 19.4706 23.6271C19.4587 23.6056 19.4382 23.6202 19.4205 23.6278C19.3704 23.6496 19.3209 23.6738 19.2691 23.691C19.2057 23.7122 19.1464 23.748 19.0659 23.754C19.1034 23.704 19.1406 23.6728 19.191 23.6612C19.3731 23.6205 19.5494 23.5665 19.7089 23.4688C19.7495 23.4439 19.7941 23.433 19.847 23.4211C19.8279 23.4505 19.8054 23.4631 19.7836 23.477C19.7318 23.5105 19.6799 23.5443 19.6291 23.5791C19.6179 23.5867 19.6036 23.5963 19.6104 23.6129C19.6179 23.6314 19.6339 23.6241 19.6472 23.6202C19.6885 23.6076 19.7331 23.5983 19.7645 23.5691C19.9101 23.4336 20.0908 23.3508 20.2616 23.2528C20.2807 23.2418 20.3107 23.2322 20.3161 23.2581C20.3298 23.324 20.3605 23.2846 20.3847 23.272C20.5217 23.2004 20.6482 23.1116 20.7897 23.047C20.8729 23.0089 20.9462 22.952 21.0215 22.8854C20.9694 22.8728 20.9394 22.9231 20.8858 22.8976C21.2588 22.6727 21.5111 22.3272 21.8435 22.0661C21.7058 22.237 21.5428 22.3855 21.3918 22.5471C21.43 22.5693 21.4528 22.5547 21.4753 22.5345C21.638 22.3894 21.7982 22.2423 21.9499 22.086C21.9867 22.0482 21.9792 21.9945 22.0202 21.9604C22.1408 21.8594 22.2349 21.7352 22.3301 21.6119C22.344 21.5937 22.3648 21.5765 22.3648 21.5427C22.3273 21.5639 22.3093 21.6 22.268 21.6096C22.2789 21.5682 22.3052 21.5404 22.3277 21.5112C22.4088 21.4065 22.4821 21.2975 22.5394 21.1789C22.5715 21.1127 22.598 21.0454 22.686 21.0308C22.7014 21.0282 22.7146 21.0073 22.7259 20.9924C23.0068 20.628 23.2595 20.2467 23.4582 19.8329C23.5714 19.5967 23.6372 19.3413 23.7777 19.1157C23.8899 18.9358 23.9734 18.742 24.0266 18.5373C24.0406 18.4836 24.0798 18.4236 24.059 18.3759C24.0232 18.2944 24.0638 18.2328 24.0805 18.1639C24.1047 18.1656 24.0938 18.1974 24.1217 18.1951C24.1865 17.9917 24.1817 17.7717 24.2632 17.5646C24.2895 17.6677 24.2274 17.7637 24.2543 17.8631C24.286 17.8505 24.2649 17.8154 24.2987 17.8022C24.2946 17.9844 24.223 18.154 24.223 18.3322C24.2956 18.206 24.3174 18.0675 24.3304 17.9297C24.3508 17.7114 24.3614 17.4924 24.3982 17.2761L24.3965 17.2781C24.4088 17.2622 24.4211 17.2466 24.4408 17.2208C24.4422 17.405 24.3822 17.5742 24.4009 17.7478C24.4436 17.6259 24.4882 17.5053 24.4811 17.3745C24.4783 17.3258 24.4736 17.2741 24.4869 17.2284C24.5649 16.9554 24.5649 16.6808 24.5223 16.4032C24.5094 16.319 24.5073 16.2332 24.5002 16.1431C24.4732 16.161 24.4541 16.1885 24.4272 16.1636C24.4023 16.1408 24.36 16.1375 24.3628 16.0848C24.3699 15.9427 24.3665 15.8002 24.3876 15.6591C24.3928 15.626 24.3747 15.567 24.4248 15.5683C24.4613 15.5693 24.4449 15.6266 24.448 15.6588C24.4555 15.7422 24.447 15.8314 24.4906 15.9046C24.5199 15.9539 24.5339 16.001 24.538 16.0546C24.5414 16.101 24.5452 16.1477 24.5496 16.1941C24.552 16.218 24.569 16.2306 24.5912 16.2375C24.6082 16.2428 24.6205 16.2345 24.6249 16.22C24.6607 16.106 24.6805 15.9841 24.6273 15.8784C24.5963 15.8165 24.5888 15.7605 24.5905 15.7008C24.598 15.4474 24.5871 15.1943 24.5663 14.9419C24.5608 14.8749 24.5336 14.8103 24.5342 14.7418C24.5349 14.6331 24.4684 14.539 24.462 14.4317C24.4609 14.4178 24.4473 14.4045 24.4289 14.3724C24.4279 14.6301 24.4129 14.8673 24.4333 15.1039C24.4395 15.1754 24.4228 15.2635 24.5223 15.298C24.5254 15.299 24.5274 15.3059 24.5278 15.3106C24.5312 15.3821 24.5462 15.454 24.5203 15.5418C24.5002 15.4517 24.4845 15.3792 24.4344 15.3185C24.4115 15.2907 24.4081 15.2536 24.4081 15.2182C24.4078 15.0002 24.3645 14.7855 24.3866 14.5645C24.4129 14.3071 24.3723 14.0477 24.3416 13.7907C24.3392 13.7698 24.3317 13.733 24.344 13.7314C24.4245 13.7208 24.3784 13.6684 24.3754 13.6386C24.3624 13.5183 24.3307 13.4011 24.3068 13.2831C24.283 13.1649 24.2489 13.0536 24.1991 12.9452C24.1555 12.8505 24.107 12.7577 24.0839 12.655C24.1139 12.6464 24.1224 12.6643 24.1323 12.6802C24.1401 12.6931 24.1507 12.7047 24.1664 12.6994C24.1865 12.6928 24.1735 12.6766 24.1729 12.664C24.1708 12.6199 24.1694 12.5755 24.1674 12.5315C24.1585 12.338 24.0917 12.1578 24.0341 11.9752L24.0324 11.9769C24.0747 11.9838 24.0675 12.0236 24.0794 12.0488C24.1217 12.1395 24.2162 12.1952 24.239 12.3025C24.2683 12.4417 24.3573 12.5606 24.4142 12.6901C24.5527 13.0049 24.6127 13.3421 24.6774 13.6757C24.7709 14.159 24.8486 14.645 24.9318 15.13C24.9608 15.2993 24.9949 15.4703 25.0051 15.6392C25.0194 15.8711 25.0382 16.1043 25.0354 16.3379C25.0354 16.3601 25.03 16.3859 25.0559 16.4085C25.0675 16.3538 25.0651 16.3048 25.0685 16.2564C25.0852 16.0238 25.0351 15.7939 25.0385 15.5617C25.0405 15.4242 25.0443 15.2844 25.0085 15.1509C24.9693 15.0045 24.9338 14.8584 24.926 14.7073C24.9253 14.6921 24.8963 14.6387 24.9614 14.6603C24.9724 14.6639 24.9747 14.6434 24.9744 14.6324C24.9737 14.5231 24.986 14.4115 24.9686 14.3045C24.8861 13.791 24.7862 13.2811 24.6096 12.7882C24.4037 12.2124 24.1473 11.6589 23.852 11.1218C23.8411 11.1016 23.8302 11.0821 23.8046 11.0722C23.7279 11.0423 23.6683 10.9857 23.61 10.9333C23.4105 10.7541 23.2932 10.5209 23.1869 10.2837C23.1493 10.1996 23.0791 10.1475 23.031 10.0604C23.0099 10.1171 23.0437 10.1439 23.0495 10.177C23.0532 10.1972 23.0675 10.2211 23.0385 10.231C23.0157 10.2386 23.0062 10.2151 22.9973 10.1996C22.8899 10.0044 22.7818 9.80963 22.6771 9.61318C22.6628 9.58601 22.6373 9.55653 22.6509 9.51148C22.7143 9.55256 22.7406 9.62146 22.8002 9.65691C22.8411 9.57276 22.8435 9.57078 22.7873 9.50982C22.7181 9.43462 22.6686 9.3465 22.6083 9.26533C22.5943 9.24645 22.5813 9.22326 22.5619 9.21266C22.4763 9.16661 22.4296 9.08611 22.3672 9.01919C22.2984 8.94498 22.2779 8.84725 22.2179 8.76708C22.0573 8.55274 21.8507 8.38147 21.6717 8.18469C21.46 7.9518 21.2391 7.72652 20.9731 7.55227C20.4948 7.23888 19.9858 6.98014 19.4542 6.76084C19.1228 6.62402 18.7635 6.56472 18.4341 6.40669C18.4693 6.39212 18.4965 6.40106 18.5245 6.40669C18.621 6.42591 18.7096 6.47361 18.8034 6.49349C19.0635 6.54915 19.3226 6.60778 19.5814 6.66774C19.6131 6.67503 19.6455 6.67934 19.6755 6.66112C19.6452 6.61573 19.5913 6.62368 19.5483 6.60116C19.5807 6.58393 19.6325 6.60414 19.6339 6.5836C19.639 6.50807 19.6847 6.55511 19.7076 6.55809C19.8047 6.572 19.9009 6.59188 19.9977 6.60844C20.0168 6.61176 20.0379 6.62203 20.0597 6.60116C19.9459 6.54948 19.8265 6.52728 19.7072 6.50475C19.5262 6.4703 19.3431 6.44645 19.1655 6.39444C19.1143 6.37953 19.0908 6.33216 19.0311 6.32387C18.8886 6.304 18.7447 6.29373 18.6032 6.26888C18.5828 6.26524 18.5559 6.26192 18.549 6.24039C18.5415 6.21687 18.5828 6.22846 18.5841 6.19898C18.4873 6.18639 18.3905 6.17314 18.2937 6.16188C17.9183 6.11881 17.5412 6.12312 17.1645 6.12312C17.0233 6.12312 16.8815 6.11748 16.741 6.12278C16.5907 6.12842 16.4413 6.15757 16.2903 6.16751C15.9627 6.18904 15.6425 6.2394 15.3462 6.38847C15.2743 6.42458 15.1976 6.46699 15.1198 6.47394C14.9981 6.48488 14.8955 6.52894 14.7929 6.58559C14.3596 6.8251 14.0309 7.18786 13.6576 7.49794C13.5583 7.58043 13.4888 7.69605 13.3916 7.78152C13.3255 7.83982 13.2771 7.90475 13.2358 7.9783C13.2331 7.98294 13.2362 7.99056 13.2372 8.00513C13.2539 7.98592 13.2689 7.97466 13.3064 7.96969C13.1888 8.09392 13.1646 8.2579 13.0503 8.37153C13.0295 8.39207 13.0166 8.41493 13.0183 8.44607C13.0217 8.51233 12.9948 8.56865 12.9518 8.61867C12.93 8.64385 12.9146 8.66637 12.9191 8.70547C12.9232 8.74257 12.9133 8.78696 12.8679 8.80651C12.8454 8.78332 12.8805 8.75317 12.8495 8.73263C12.7997 8.76973 12.8093 8.83831 12.7691 8.88403C12.7438 8.84063 12.7738 8.80353 12.7711 8.7641C12.7411 8.77305 12.7329 8.79557 12.722 8.81578C12.6716 8.91086 12.6658 9.01753 12.6398 9.11891C12.602 9.26798 12.5696 9.41805 12.5331 9.56746C12.529 9.58436 12.5226 9.61881 12.5093 9.61351C12.4332 9.58204 12.4619 9.6473 12.4595 9.66718C12.4302 9.91233 12.4036 10.1575 12.3787 10.403C12.3688 10.5023 12.3494 10.6021 12.3811 10.7014C12.4438 10.8972 12.4626 11.0977 12.4609 11.3021C12.4598 11.4203 12.4534 11.5419 12.5935 11.6161C12.6504 11.6463 12.6801 11.7258 12.722 11.7831C12.7183 11.7861 12.7145 11.789 12.7108 11.7917C12.6716 11.7569 12.6327 11.7221 12.5935 11.6873L12.5792 11.6973C12.6201 11.7639 12.647 11.849 12.7063 11.8917C12.7609 11.9312 12.7697 11.9756 12.7854 12.0246C12.7987 12.067 12.812 12.1091 12.8338 12.1482C12.8717 12.2157 12.9296 12.2807 12.9406 12.3522C12.9539 12.4413 13.0169 12.4824 13.065 12.5407C13.108 12.5927 13.1475 12.6474 13.1884 12.7011C13.1468 12.6805 13.1025 12.6706 13.0555 12.6713C13.0029 12.6719 12.9208 12.5931 12.9133 12.5348C12.945 12.5334 12.9607 12.5748 13.0023 12.5633C12.9607 12.5023 12.9058 12.4629 12.8495 12.4211C12.84 12.498 12.8287 12.5689 12.8949 12.6219C12.8986 12.6249 12.8993 12.6361 12.8966 12.6414C12.8724 12.6901 12.9085 12.715 12.9378 12.7415C13.0173 12.8124 13.0964 12.8839 13.1782 12.9525C13.2972 13.0522 13.392 13.1788 13.5365 13.251C13.5754 13.2705 13.6139 13.303 13.631 13.3444C13.6477 13.3845 13.677 13.4074 13.7101 13.4312C13.7718 13.4756 13.8325 13.5213 13.8921 13.5684C14.0735 13.7111 14.26 13.8417 14.4905 13.9066C14.6599 13.9543 14.8318 14.0037 14.9702 14.1206C15.0046 14.1498 15.0448 14.1706 15.0898 14.1819C15.1117 14.1872 15.1424 14.2038 15.1338 14.2193C15.1113 14.2604 15.1468 14.272 15.1638 14.2909C15.2214 14.3545 15.2903 14.4059 15.366 14.4466C15.6282 14.5877 15.8767 14.7471 16.1195 14.918C16.4127 15.1247 16.6732 15.3735 16.9889 15.5504C17.0373 15.5776 17.0806 15.615 17.1369 15.5683C17.1491 15.5584 17.1641 15.5571 17.1764 15.5673C17.2255 15.6074 17.2889 15.6346 17.3162 15.6945C17.3319 15.729 17.3561 15.7519 17.3854 15.7721C17.4826 15.839 17.5801 15.9059 17.6779 15.9718C17.7468 16.0185 17.7921 16.0841 17.8334 16.1527C17.8426 16.1679 17.8484 16.1991 17.8198 16.1895C17.7673 16.1723 17.7004 16.1782 17.6711 16.1116C17.6575 16.0808 17.6295 16.0546 17.6043 16.0298C17.5709 15.9967 17.532 15.9722 17.4693 15.9804C17.5153 16.0232 17.5514 16.0626 17.5746 16.1123C17.6043 16.1759 17.6377 16.2378 17.6735 16.2985C17.6909 16.3276 17.7066 16.3654 17.7451 16.3727C17.7806 16.3793 17.7662 16.3233 17.8007 16.3193C17.8252 16.3541 17.8491 16.3882 17.8726 16.4224L17.8699 16.421ZM13.7932 19.9316C13.7875 19.7007 13.6807 19.4867 13.5185 19.2939C13.3718 19.12 13.1884 18.9898 12.99 18.8798C12.8594 18.8076 12.7234 18.7443 12.5768 18.8517C12.5604 18.8636 12.5372 18.8676 12.5171 18.8739C12.3968 18.9103 12.273 18.9342 12.1806 19.0325C12.0296 19.1932 11.9334 19.3797 11.8765 19.5878C11.8673 19.6216 11.8594 19.6573 11.8928 19.6852C11.9116 19.7007 11.9099 19.7183 11.8959 19.7342C11.8335 19.8074 11.8383 19.8919 11.8625 19.9734C11.8813 20.037 11.842 20.1148 11.9113 20.1655C11.887 20.2159 11.9167 20.2556 11.9396 20.2957C12.0292 20.4531 12.167 20.5564 12.3344 20.627C12.5076 20.6999 12.6947 20.7214 12.8761 20.7625C12.9313 20.7748 12.9999 20.793 13.0517 20.7618C13.2409 20.6479 13.4458 20.5641 13.605 20.3958C13.7315 20.2623 13.7909 20.1258 13.7932 19.9313V19.9316ZM20.1532 23.7129C20.1255 23.7 20.1146 23.7113 20.102 23.7169C19.7123 23.8898 19.3257 24.0687 18.9193 24.2039C18.6564 24.2913 18.3983 24.3924 18.1358 24.4808C17.9872 24.5308 17.8365 24.5825 17.6732 24.553C17.6067 24.5411 17.5422 24.5521 17.4764 24.5742C17.4093 24.5968 17.3418 24.6236 17.2691 24.6302C17.0516 24.6498 16.8351 24.6885 16.6248 24.7369C16.3752 24.7945 16.1205 24.8386 15.8778 24.9314C15.7513 24.9797 15.604 24.9724 15.4645 24.9609C15.4168 24.9569 15.3694 24.9473 15.322 24.94C15.44 24.9168 15.5563 24.9105 15.6725 24.9022C15.6943 24.9006 15.7301 24.9102 15.7329 24.8807C15.7356 24.8525 15.6988 24.8545 15.6776 24.8472C15.6279 24.8303 15.5689 24.8499 15.5245 24.8177C15.4918 24.7939 15.4601 24.7946 15.4233 24.7975C15.3186 24.8065 15.215 24.836 15.1123 24.8403C14.8556 24.8505 14.5989 24.827 14.3442 24.7952C14.0135 24.7538 13.6828 24.7111 13.3534 24.6617C13.1891 24.6369 13.0179 24.6312 12.87 24.5401C12.7817 24.4858 12.6811 24.4745 12.5798 24.4709C12.5188 24.4686 12.4615 24.456 12.4039 24.4391C12.2392 24.3904 12.0742 24.342 11.9085 24.297C11.5161 24.19 11.1223 24.0873 10.748 23.9266C10.6406 23.8805 10.5117 23.8507 10.4367 23.7732C10.3416 23.6751 10.2192 23.6447 10.1121 23.5794C10.0814 23.5605 10.0504 23.5383 10.0027 23.534C10.0357 23.5946 10.0807 23.6301 10.1312 23.6616C10.3286 23.7848 10.539 23.8875 10.734 24.015C10.9273 24.1413 11.1339 24.2416 11.3504 24.3274C11.5035 24.3881 11.6538 24.4533 11.8134 24.4971C12.1554 24.5905 12.5065 24.6458 12.8519 24.725C12.9235 24.7412 13.0006 24.7462 13.0612 24.7969C12.9184 24.7856 12.7769 24.7674 12.6327 24.7945C12.7186 24.7886 12.7807 24.8462 12.855 24.8664C12.9614 24.8956 13.0705 24.9115 13.1802 24.9244C13.2065 24.9274 13.2379 24.9261 13.2488 24.9539C13.2662 24.9976 13.3037 24.9973 13.3412 25.0069C13.4588 25.0374 13.5785 24.9983 13.6978 25.0248C13.8471 25.0579 13.9995 25.0811 14.1536 25.0851C14.1918 25.0861 14.2344 25.0904 14.2624 25.0602C14.2948 25.0255 14.334 25.0248 14.3746 25.0281C14.4629 25.0347 14.5508 25.038 14.6384 25.0569C14.7387 25.0785 14.8413 25.0967 14.9453 25.0904C15.1778 25.0768 15.4103 25.0662 15.6422 25.0477C16.0268 25.0168 16.4089 24.9652 16.7925 24.9234C16.9712 24.9039 17.1495 24.881 17.3285 24.8628C17.3967 24.8558 17.4485 24.8138 17.5105 24.7909C17.3639 24.7621 17.2211 24.83 17.0765 24.8022C17.0772 24.783 17.0884 24.7836 17.097 24.7816C17.3782 24.722 17.6585 24.6601 17.9364 24.5868C18.0093 24.5676 18.0884 24.4788 18.1737 24.5696C18.1747 24.5706 18.1784 24.5696 18.1805 24.5689C18.2534 24.5434 18.3315 24.5524 18.4072 24.5342C18.5081 24.51 18.5855 24.446 18.6769 24.4086C19.0829 24.2426 19.4866 24.0707 19.8753 23.8686C19.9673 23.8209 20.0638 23.7795 20.1528 23.7122L20.1532 23.7129ZM12.2437 11.3988C12.2587 11.3766 12.2549 11.3627 12.2505 11.3494C12.1731 11.1129 12.1448 10.8671 12.1097 10.6226C12.1046 10.5875 12.0947 10.554 12.0807 10.5222C12.066 10.4888 12.0452 10.456 12.0009 10.4686C11.9576 10.4811 11.9055 10.4851 11.9061 10.553C11.9072 10.6514 11.9133 10.7485 11.9368 10.8442C11.9436 10.8714 11.9471 10.8996 11.9788 10.9128C12.0183 10.929 12.0081 10.875 12.0446 10.8754C12.0705 10.9555 12.1196 11.0321 12.092 11.1252C12.0872 11.1414 12.0858 11.1606 12.0974 11.1722C12.1615 11.2361 12.1813 11.3269 12.2433 11.3985L12.2437 11.3988ZM12.0268 11.2252C12.0013 11.3749 12.0623 11.4889 12.094 11.6078C12.1209 11.7085 12.2099 11.7698 12.2607 11.8563C12.3231 11.9626 12.348 12.0882 12.4414 12.179C12.4932 12.2293 12.5393 12.2866 12.5669 12.3555C12.5775 12.3824 12.5972 12.4049 12.6375 12.4152C12.5744 12.2986 12.5451 12.176 12.4564 12.0829C12.4291 12.0541 12.4083 12.0193 12.3858 11.9862C12.2958 11.8536 12.2072 11.7191 12.1796 11.5595C12.1591 11.4409 12.1005 11.3421 12.0272 11.2249L12.0268 11.2252ZM5.68465 19.4662C5.67954 19.4712 5.67476 19.4761 5.66965 19.4814C5.72352 19.5908 5.81932 19.6716 5.88853 19.7706C5.89126 19.7746 5.90217 19.7766 5.90729 19.7746C5.92161 19.7697 5.92024 19.7581 5.91785 19.7455C5.91513 19.7306 5.90081 19.712 5.92058 19.7017C5.93797 19.6925 5.95093 19.7113 5.9649 19.719C6.03446 19.7561 6.05014 19.8286 6.08082 19.8909C6.10094 19.9316 6.12583 19.9843 6.16674 19.984C6.21004 19.9833 6.21856 20.0062 6.23459 20.0271C6.24789 20.0449 6.25948 20.0625 6.28846 20.0817C6.28232 20.0612 6.2813 20.0519 6.27687 20.0446C6.16606 19.8568 6.03037 19.6848 5.91104 19.5023C5.89774 19.4818 5.87831 19.4688 5.85683 19.4576C5.84046 19.4493 5.82546 19.4467 5.81012 19.4586C5.79171 19.4728 5.79273 19.4894 5.80193 19.5086C5.80671 19.5189 5.82785 19.5268 5.80637 19.5457C5.76648 19.5199 5.72556 19.4937 5.68465 19.4672V19.4662ZM6.49336 20.6615C6.48007 20.6025 6.45109 20.577 6.42858 20.5485C6.36278 20.4657 6.28573 20.3845 6.25641 20.2855C6.23118 20.2003 6.17697 20.1334 6.14765 20.0539C6.12003 19.9797 6.05628 20.0042 6.0215 20.0175C5.98945 20.0294 6.03139 20.0701 6.044 20.0963C6.05594 20.1215 6.07298 20.1443 6.08833 20.1682C6.20049 20.3418 6.32255 20.5074 6.49336 20.6615ZM14.0258 24.3698C13.8335 24.2324 13.6119 24.2416 13.3896 24.2516C13.5962 24.3155 13.7987 24.4007 14.0258 24.3698ZM5.68772 19.3025C5.63726 19.1985 5.57998 19.115 5.48179 19.06C5.43849 19.0359 5.40781 18.9875 5.40781 18.9381C5.40781 18.8851 5.38633 18.844 5.36076 18.8026C5.34917 18.7838 5.35189 18.739 5.31575 18.7539C5.29018 18.7645 5.29632 18.803 5.30212 18.8305C5.30484 18.8437 5.31337 18.856 5.3195 18.8686C5.35394 18.9375 5.39656 19.0034 5.4211 19.0756C5.46372 19.1995 5.54418 19.2754 5.68738 19.3029L5.68772 19.3025ZM12.4759 11.7904C12.5147 11.8881 12.5717 11.9729 12.6378 12.0521C12.6497 12.0663 12.6787 12.0793 12.6586 12.1038C12.6081 12.1651 12.6664 12.1899 12.7022 12.2098C12.7469 12.2346 12.7841 12.2641 12.8195 12.2989C12.8304 12.3098 12.8393 12.3333 12.8727 12.3164C12.72 12.1535 12.6214 11.955 12.4759 11.7904ZM8.40809 22.3417C8.54617 22.4623 8.70846 22.5385 8.88609 22.5872C8.73403 22.4925 8.5656 22.4269 8.40809 22.3417ZM6.82919 20.4733C6.74293 20.3464 6.66792 20.2132 6.57553 20.0913C6.63929 20.2321 6.70679 20.3703 6.82919 20.4733ZM6.69452 20.0791C6.61644 19.9535 6.51757 19.8525 6.42279 19.7481C6.45927 19.8952 6.58985 19.9731 6.67883 20.0817C6.67952 20.0827 6.68327 20.0811 6.69452 20.0791ZM23.4906 20.5982C23.553 20.5449 23.5933 20.4769 23.6348 20.41C23.6427 20.3978 23.6478 20.3832 23.6308 20.3739C23.6188 20.3673 23.6076 20.3729 23.6001 20.3838C23.5544 20.4504 23.5101 20.5177 23.4906 20.5982ZM17.9476 20.1493C17.8968 20.2242 17.8416 20.2977 17.8443 20.3931C17.8886 20.3156 17.9497 20.2447 17.9476 20.1493ZM6.47222 20.3858C6.49473 20.4832 6.54075 20.5432 6.60894 20.5651C6.55985 20.5074 6.54825 20.4306 6.47222 20.3858ZM17.2218 21.1587C17.2582 21.1504 17.2896 21.1229 17.3281 21.1528C17.3343 21.1574 17.3581 21.1412 17.3639 21.1246C17.368 21.113 17.3653 21.1014 17.3557 21.0931C17.3438 21.0829 17.3278 21.0795 17.3169 21.0898C17.2879 21.1163 17.2425 21.119 17.2218 21.1587ZM21.3028 22.6535C21.2213 22.683 21.1712 22.7505 21.1105 22.8059C21.1828 22.7654 21.2489 22.7174 21.3028 22.6535Z" fill="black"/>
<path d="M17.5245 8.56961C17.7198 8.56762 17.9176 8.56663 18.0928 8.6627C18.4955 8.88333 18.7219 9.25106 18.608 9.7069C18.4859 10.1955 18.1767 10.5364 17.696 10.7223C17.4785 10.8068 17.2715 10.7799 17.054 10.6742C16.7628 10.5328 16.6247 10.2876 16.4942 10.0266C16.4069 9.85267 16.3987 9.6688 16.4284 9.48196C16.4577 9.29578 16.485 9.11026 16.578 8.93799C16.6674 8.77235 16.7921 8.67429 16.9827 8.63553C17.1624 8.59876 17.3414 8.57292 17.5241 8.56961H17.5245Z" fill="black"/>
<path d="M17.187 21.4691C17.0162 21.6474 16.7639 21.7252 16.6033 21.916C16.6926 21.8733 16.7649 21.8031 16.8689 21.7782C16.8552 21.8405 16.7966 21.873 16.7676 21.9243C16.8276 21.92 16.9285 21.8468 17.0734 21.7017C17.1651 21.6096 17.249 21.5086 17.3499 21.4271C17.4515 21.3449 17.531 21.2419 17.6452 21.1475C17.6142 21.217 17.575 21.2604 17.5385 21.3045C17.3121 21.5765 17.0455 21.806 16.7485 22.0032C16.7233 22.0201 16.7004 22.0366 16.664 22.0323C16.6292 22.0283 16.6023 22.0535 16.5866 22.0847C16.5671 22.1231 16.5453 22.1489 16.4986 22.1151C16.4819 22.1032 16.4604 22.1055 16.4434 22.1151C16.2859 22.2039 16.129 22.2934 15.9725 22.3831C15.965 22.3875 15.9606 22.3971 15.9517 22.4077C15.9828 22.414 16.009 22.3769 16.0452 22.4093C15.9132 22.4564 15.8068 22.5458 15.6613 22.5567C15.6053 22.561 15.5447 22.5925 15.4993 22.628C15.3701 22.7293 15.2102 22.7601 15.0629 22.8191C14.845 22.9062 14.6166 22.9606 14.3875 23.0073C14.0118 23.0838 13.6327 23.1424 13.2481 23.157C13.2389 23.1574 13.2293 23.155 13.2126 23.153C13.244 23.1057 13.2767 23.0778 13.3354 23.0706C13.4465 23.0573 13.5532 23.0517 13.6678 23.0623C13.8072 23.0752 13.9548 23.0414 14.0858 22.9798C14.1505 22.9493 14.2163 22.9334 14.2787 22.9579C14.3347 22.9801 14.3827 22.9755 14.4356 22.9619C14.5801 22.9255 14.7271 22.8956 14.8808 22.8317C14.7942 22.8122 14.7274 22.8648 14.649 22.8377C14.7018 22.7823 14.7516 22.7264 14.8242 22.7114C14.931 22.6899 15.0346 22.6353 15.1509 22.6793C15.1962 22.6965 15.2467 22.6578 15.2729 22.6329C15.3333 22.575 15.3258 22.5663 15.3793 22.5461C15.6023 22.4617 15.8164 22.355 16.0489 22.294C16.1079 22.2785 16.1597 22.2563 16.1795 22.1817C16.1935 22.1297 16.2637 22.1085 16.3155 22.086C16.3987 22.0499 16.4693 22.0018 16.5191 21.927C16.5317 21.9081 16.5525 21.8928 16.5508 21.86C16.4713 21.8859 16.381 21.8779 16.3295 21.9621C16.3421 21.9197 16.3639 21.8842 16.3977 21.8624C16.5197 21.7825 16.6254 21.6831 16.741 21.596C16.7662 21.5771 16.7908 21.5457 16.8065 21.6106C16.8119 21.6328 16.8573 21.6775 16.9071 21.6278C16.9841 21.5513 17.1045 21.5423 17.1859 21.4688L17.187 21.4691Z" fill="black"/>
<path d="M19.1467 17.1314C19.0632 17.0277 18.9994 16.9127 18.9772 16.7852C18.9329 16.5284 18.8317 16.2949 18.6994 16.0719C18.5582 15.8344 18.3711 15.6376 18.1409 15.4783C18.0942 15.4458 18.0393 15.418 18.0168 15.3401C18.0799 15.3828 18.1307 15.4173 18.1815 15.4518C18.128 15.3474 18.0059 15.2974 17.978 15.1748C18.2776 15.3514 18.531 15.5767 18.7372 15.8529C19.0216 16.2346 19.1395 16.6659 19.1467 17.1314Z" fill="black"/>
<path d="M15.9517 14.6871C16.0544 14.7159 16.1434 14.7288 16.2269 14.7626C16.262 14.7769 16.2927 14.7828 16.3251 14.7514C16.3469 14.7302 16.3817 14.7146 16.4066 14.7487C16.5003 14.8776 16.6496 14.916 16.7877 14.9717C16.844 14.9942 16.8944 15.0227 16.9391 15.0631C17.0758 15.1873 17.2115 15.3122 17.339 15.4454C17.3527 15.46 17.3796 15.4726 17.3646 15.4964C17.3523 15.516 17.3291 15.5011 17.3111 15.4997C17.218 15.4918 17.1249 15.4775 17.0315 15.4759C16.9241 15.4739 16.858 15.4229 16.7993 15.3404C16.7274 15.239 16.6203 15.1731 16.5075 15.1191C16.4181 15.0764 16.3581 15.0005 16.2828 14.9405C16.3837 14.9753 16.4621 15.0502 16.5671 15.079C16.4775 15.0154 16.4805 14.8809 16.365 14.8398C16.3234 14.8249 16.2883 14.807 16.2398 14.8428C16.187 14.8822 16.1215 14.8398 16.0851 14.8087C16.0455 14.7746 15.9944 14.7504 15.9514 14.6868L15.9517 14.6871Z" fill="black"/>
<path d="M10.3463 22.7734C10.3549 22.7714 10.363 22.7687 10.3716 22.7674C10.39 22.7641 10.4166 22.7684 10.4193 22.7455C10.4217 22.7237 10.3947 22.7214 10.378 22.7134C10.3606 22.7055 10.3276 22.7127 10.3327 22.6813C10.3371 22.6528 10.3658 22.6501 10.39 22.6501C10.4524 22.6501 10.5151 22.6465 10.5751 22.668C10.6256 22.6862 10.6262 22.6902 10.5853 22.7558C10.7415 22.6892 10.8646 22.8158 11.0098 22.7976C11.0378 22.7942 11.1421 22.7836 11.0926 22.8834C11.0828 22.9032 11.1036 22.9118 11.122 22.9112C11.1458 22.9105 11.1697 22.9069 11.1936 22.9059C11.2222 22.9046 11.2573 22.8966 11.2778 22.9148C11.4176 23.0391 11.5993 23.0152 11.7646 23.048C11.7974 23.0546 11.8315 23.0556 11.8649 23.0566C11.8918 23.0573 11.931 23.0752 11.9419 23.0414C11.9532 23.0063 11.898 23.0268 11.8836 22.989C12.1635 23.0165 12.4237 22.885 12.6995 22.945C12.705 22.893 12.6525 22.9148 12.6497 22.8817C12.7217 22.84 12.7721 22.9162 12.8403 22.9099C12.7503 23.0169 12.6286 22.9877 12.5137 22.9924C12.6119 23.0235 12.7108 23.0281 12.8025 23.056C11.96 23.1646 11.1417 23.0676 10.3463 22.7734Z" fill="black"/>
<path d="M18.3503 19.9963C18.3203 20.0536 18.293 20.1063 18.2657 20.1586C18.2626 20.1573 18.2592 20.1563 18.2562 20.155C18.2732 20.0983 18.293 20.042 18.307 19.9847C18.3421 19.8402 18.3769 19.6985 18.4468 19.562C18.4911 19.4748 18.4907 19.3635 18.5146 19.2638C18.5518 19.1104 18.5501 18.9481 18.6305 18.8053C18.6349 18.7974 18.636 18.7864 18.6414 18.7798C18.6629 18.754 18.6745 18.7066 18.7188 18.7202C18.7638 18.7338 18.7403 18.7765 18.7359 18.8053C18.7161 18.9339 18.7106 19.0654 18.6592 19.1883C18.6448 19.2231 18.6274 19.2539 18.5971 19.28C18.547 19.3234 18.5337 19.3904 18.5415 19.446C18.5494 19.503 18.5859 19.4377 18.6182 19.4497C18.5872 19.5179 18.5957 19.6103 18.4924 19.6435C18.4635 19.6527 18.4604 19.6832 18.4744 19.7094C18.501 19.7594 18.5183 19.6935 18.5504 19.7071C18.5351 19.82 18.4965 19.9287 18.4461 20.0324C18.426 20.0735 18.3881 20.0595 18.3506 19.9966L18.3503 19.9963Z" fill="black"/>
<path d="M23.8745 12.0537C23.6529 11.6001 23.4374 11.1589 23.2175 10.709C23.2574 10.7149 23.2676 10.7335 23.282 10.7487C23.3007 10.7686 23.3232 10.7915 23.3202 10.7361C23.3184 10.709 23.3375 10.7255 23.3488 10.7289C23.39 10.7408 23.4071 10.7742 23.4241 10.808C23.4858 10.9286 23.5281 11.0582 23.5994 11.1744C23.6024 11.1797 23.6072 11.184 23.6209 11.1854C23.6065 11.139 23.5922 11.0926 23.5782 11.0462C23.6355 11.0913 23.6836 11.1509 23.6843 11.2139C23.6856 11.3566 23.7555 11.4772 23.7924 11.6081C23.8039 11.6485 23.8271 11.6873 23.8247 11.7519C23.7494 11.6015 23.7081 11.46 23.6611 11.3212C23.6478 11.2824 23.6345 11.2165 23.6001 11.2281C23.5629 11.2407 23.6045 11.2954 23.6175 11.3285C23.7044 11.5494 23.7937 11.7698 23.8824 11.9901C23.8885 12.0053 23.8953 12.0202 23.8749 12.054L23.8745 12.0537ZM23.4378 10.9733C23.4194 10.9101 23.3917 10.8518 23.3464 10.8024C23.3648 10.8654 23.3921 10.9237 23.4378 10.9733Z" fill="black"/>
<path d="M14.6944 7.01431C14.6688 7.01861 14.6436 7.02292 14.618 7.02723C14.6153 7.02193 14.6122 7.01629 14.6095 7.01099C14.8502 6.81355 15.1267 6.67308 15.4124 6.54653C15.3159 6.67408 15.1441 6.69528 15.0353 6.80891C15.4737 6.58563 15.9251 6.40508 16.4253 6.37427C16.2313 6.43025 16.0312 6.46603 15.8396 6.53196C15.528 6.63929 15.2201 6.75524 14.934 6.91956C14.8543 6.96528 14.796 7.03418 14.7216 7.0852C14.6708 7.11999 14.6221 7.15013 14.5556 7.14748C14.5822 7.08255 14.6664 7.0746 14.6926 7.01298C14.7571 6.99741 14.8055 6.95832 14.8495 6.91393C14.7762 6.91691 14.7312 6.95998 14.6944 7.01464V7.01431Z" fill="black"/>
<path d="M9.50658 22.8691C9.61807 22.9175 9.73706 22.9546 9.839 23.0179C9.94094 23.0808 10.0252 23.1713 10.1547 23.1984C10.1595 23.157 10.1135 23.1607 10.1223 23.1265C10.1452 23.1169 10.1724 23.1229 10.1915 23.1362C10.3296 23.2309 10.4742 23.3157 10.6232 23.4002C10.6 23.4148 10.586 23.4038 10.5707 23.3985C10.4653 23.3611 10.362 23.3167 10.2451 23.3273C10.2082 23.3306 10.1741 23.3141 10.1424 23.2985C10.0125 23.2342 9.88605 23.1633 9.75411 23.1034C9.64603 23.0543 9.60887 22.9301 9.48783 22.899C9.49397 22.8893 9.50011 22.8794 9.50624 22.8698L9.50658 22.8691Z" fill="black"/>
<path d="M20.5994 22.8853C20.5507 23.1278 20.3376 23.1779 20.1589 23.2643C20.132 23.2772 20.0955 23.2773 20.0737 23.2988C20.0127 23.3591 19.9264 23.3226 19.8586 23.3568C19.8187 23.377 19.7754 23.3902 19.7307 23.4078C19.7784 23.3455 20.4463 22.943 20.5991 22.885L20.5994 22.8853Z" fill="black"/>
<path d="M13.9913 13.2374C13.8959 13.1579 13.7636 13.1347 13.6872 13.0191C13.6391 12.9459 13.5498 12.8982 13.4782 12.8399C13.3558 12.7398 13.2689 12.6106 13.1741 12.4881C13.1693 12.4818 13.1697 12.4718 13.1646 12.449C13.2583 12.5344 13.3405 12.6106 13.4243 12.6852C13.4523 12.71 13.482 12.7398 13.5164 12.7508C13.6425 12.7902 13.7234 12.8839 13.8048 12.9737C13.8764 13.0529 13.961 13.1251 13.9913 13.2378V13.2374Z" fill="black"/>
<path d="M18.8862 17.0475C18.8385 16.9912 18.8242 16.9378 18.8129 16.8871C18.7768 16.7225 18.6748 16.5863 18.6111 16.4339C18.5736 16.3448 18.4774 16.2869 18.4218 16.2017C18.3871 16.1487 18.3953 16.0977 18.4007 16.0483C18.4055 16.0073 18.4372 16.0384 18.4501 16.0516C18.5095 16.1126 18.5633 16.1775 18.6104 16.2484C18.7601 16.474 18.8422 16.7225 18.8859 16.9849C18.8886 17.0004 18.8859 17.0167 18.8859 17.0472L18.8862 17.0475Z" fill="black"/>
<path d="M7.97134 22.0215C7.93622 21.9884 7.91576 21.9592 7.88133 21.9744C7.83121 21.997 7.80598 21.9708 7.7787 21.9383C7.74461 21.8973 7.71324 21.8578 7.65017 21.8472C7.60789 21.8403 7.583 21.7919 7.553 21.7515C7.5905 21.7435 7.60005 21.7806 7.63108 21.7859C7.6304 21.7614 7.59869 21.7488 7.61335 21.7078C7.68495 21.777 7.77632 21.8062 7.85132 21.8655C7.94372 21.939 8.04327 22.0036 8.14044 22.0712C8.15613 22.0821 8.17454 22.0831 8.19533 22.0805C8.26761 22.0705 8.31535 22.1166 8.36478 22.1567C8.37842 22.1676 8.38319 22.1832 8.37194 22.2004C8.35933 22.2203 8.33955 22.2242 8.32216 22.2146C8.22159 22.1596 8.09578 22.1914 7.99691 22.1222C7.97065 22.104 7.91917 22.1205 7.89769 22.0778C7.89053 22.0639 7.86974 22.0543 7.87621 22.0361C7.88474 22.0129 7.90758 22.0208 7.92599 22.0208C7.9352 22.0208 7.9444 22.0208 7.97168 22.0208L7.97134 22.0215Z" fill="black"/>
<path d="M15.9811 14.3425C15.8362 14.2802 15.6783 14.2623 15.531 14.2096C15.4461 14.1795 15.3554 14.1666 15.2729 14.1278C15.2255 14.1056 15.1771 14.09 15.1485 14.0403C15.127 14.0029 15.0742 14.0128 15.0418 13.9883C15.0264 13.9767 14.994 13.9744 15.0135 13.9446C15.0278 13.9227 15.0476 13.9284 15.0697 13.9396C15.1417 13.9761 15.2092 14.0208 15.2869 14.0456C15.2937 14.0476 15.2999 14.0552 15.306 14.0549C15.4945 14.0476 15.6333 14.1699 15.7952 14.2318C15.8628 14.2577 15.9367 14.2746 15.9811 14.3421V14.3425Z" fill="black"/>
<path d="M16.2831 14.7442C16.1185 14.6948 15.9688 14.6289 15.8174 14.5673C15.7444 14.5375 15.6698 14.5136 15.5937 14.4931C15.5184 14.4729 15.4591 14.4238 15.3984 14.3798C15.3827 14.3682 15.353 14.3463 15.3687 14.3238C15.3844 14.3016 15.4127 14.3198 15.4342 14.3291C15.5429 14.3771 15.651 14.4272 15.7605 14.4735C15.8941 14.5302 16.0288 14.5849 16.1635 14.6385C16.2132 14.6584 16.2589 14.6803 16.2831 14.7439V14.7442Z" fill="black"/>
<path d="M13.589 8.02168C13.5866 7.98789 13.6044 7.96702 13.6234 7.94648C13.7247 7.83782 13.8198 7.7232 13.9282 7.62182C14.0759 7.48401 14.233 7.35614 14.3872 7.22462C14.4079 7.20706 14.4318 7.18817 14.4642 7.20209C14.4666 7.23257 14.4414 7.24085 14.4233 7.25443C14.3156 7.33593 14.1962 7.41146 14.1181 7.51714C14.0329 7.63242 13.9149 7.71061 13.8232 7.81629C13.7561 7.89381 13.6633 7.94714 13.589 8.02102V8.02168Z" fill="black"/>
<path d="M18.8552 17.822C18.8051 17.7992 18.8003 17.7538 18.7815 17.7177C18.7328 17.6246 18.6888 17.5288 18.6417 17.4351C18.6267 17.4049 18.6111 17.3791 18.6417 17.3473C18.6602 17.3281 18.6516 17.2979 18.6489 17.2727C18.638 17.1787 18.6257 17.0849 18.6196 16.9895C18.7485 17.2539 18.7645 17.5484 18.8555 17.8223L18.8552 17.822Z" fill="black"/>
<path d="M14.231 13.4156C14.2494 13.3818 14.2027 13.3702 14.217 13.3364C14.3111 13.4004 14.4103 13.457 14.4963 13.5286C14.5822 13.5998 14.6831 13.6399 14.7792 13.6909C14.7987 13.7012 14.8379 13.6992 14.8256 13.7303C14.8103 13.7691 14.7806 13.7366 14.7602 13.7287C14.7138 13.7104 14.6684 13.6886 14.6238 13.6667C14.5372 13.6243 14.4581 13.5696 14.3568 13.5544C14.2815 13.5431 14.2184 13.4928 14.1574 13.4471C14.1379 13.4325 14.1032 13.4179 14.1263 13.3891C14.1451 13.3659 14.1737 13.3782 14.1959 13.3974C14.2054 13.4057 14.2187 13.41 14.2307 13.4159L14.231 13.4156Z" fill="black"/>
<path d="M19.0884 17.4571C18.9442 17.3292 18.9578 17.1569 18.9476 16.9916C18.9462 16.9714 18.9588 16.9552 18.981 16.9522C19.0042 16.9492 19.0062 16.9691 19.0124 16.9837C19.0601 17.1006 19.1119 17.2159 19.1467 17.3375C19.1515 17.3544 19.191 17.4057 19.1133 17.3888C19.0867 17.3832 19.1163 17.4408 19.0887 17.4571H19.0884Z" fill="black"/>
<path d="M17.6595 15.0287C17.6776 15.0803 17.7209 15.0949 17.7349 15.1453C17.5562 15.0495 17.3878 14.9594 17.2787 14.7935C17.4911 14.8839 17.6994 14.9803 17.8852 15.1161C17.7993 15.1231 17.7393 15.0697 17.6595 15.0287Z" fill="black"/>
<path d="M24.3958 17.2754C24.3457 17.2813 24.3672 17.3502 24.3075 17.3595C24.3576 17.0233 24.3706 16.6854 24.4388 16.3547C24.4476 16.3557 24.4565 16.3564 24.4657 16.3574C24.4551 16.476 24.4422 16.5943 24.4343 16.7132C24.4217 16.9014 24.3788 17.0875 24.3941 17.2774L24.3962 17.2754H24.3958Z" fill="black"/>
<path d="M18.6295 18.4188C18.637 18.3581 18.6148 18.2872 18.6455 18.2203C18.6517 18.2067 18.6523 18.1839 18.6745 18.1862C18.6946 18.1885 18.6973 18.2097 18.6984 18.2246C18.7008 18.2647 18.714 18.2968 18.7427 18.3283C18.7761 18.3654 18.7563 18.5635 18.7239 18.6036C18.7055 18.6265 18.6796 18.6341 18.654 18.6301C18.621 18.6245 18.6312 18.5937 18.6305 18.5725C18.6288 18.5238 18.6298 18.4751 18.6298 18.4184L18.6295 18.4188Z" fill="black"/>
<path d="M17.9916 16.2818C18.0512 16.3156 18.1119 16.3474 18.1406 16.4133C18.1488 16.4319 18.1576 16.4627 18.191 16.4365C18.1999 16.4296 18.2101 16.4329 18.2142 16.4428C18.2401 16.5088 18.2906 16.5647 18.2916 16.6436C18.1856 16.5276 18.0611 16.4276 17.9916 16.2815V16.2818Z" fill="black"/>
<path d="M11.2601 23.5801C11.0572 23.5728 10.9014 23.4675 10.7585 23.335C10.927 23.4112 11.0957 23.4874 11.2641 23.5635C11.2628 23.5692 11.2614 23.5748 11.2597 23.5804L11.2601 23.5801Z" fill="black"/>
<path d="M18.938 19.3124C18.9145 19.2876 18.9224 19.266 18.9281 19.2475C18.9537 19.164 18.9646 19.0789 18.966 18.9924C18.9667 18.9407 19.0032 18.9271 19.0424 18.9294C19.086 18.9321 19.0765 18.9722 19.0676 18.995C19.0274 19.1004 18.983 19.2041 18.9384 19.3124H18.938Z" fill="black"/>
<path d="M24.0307 11.9747C23.9403 11.8375 23.8923 11.6861 23.8612 11.5132C23.9192 11.5519 23.9304 11.6049 23.9478 11.6477C23.984 11.7381 24.0072 11.8339 24.0338 11.9279C24.0378 11.9425 24.031 11.9598 24.0293 11.976L24.0307 11.9747Z" fill="black"/>
<path d="M15.2893 13.9966C15.215 13.9625 15.1342 13.9466 15.081 13.8734C15.0482 13.828 14.9845 13.8035 14.9402 13.7617C15.0656 13.8276 15.216 13.8571 15.2893 13.9969V13.9966Z" fill="black"/>
<path d="M16.7216 14.751C16.5975 14.6891 16.4734 14.6268 16.3448 14.5625C16.4239 14.536 16.6224 14.6268 16.7291 14.7331C16.7267 14.7391 16.724 14.745 16.7216 14.751Z" fill="black"/>
<path d="M21.1453 22.5452C21.0352 22.6386 20.9619 22.7671 20.8282 22.8433C20.8217 22.8085 20.8453 22.7963 20.8603 22.781C20.924 22.7151 21 22.6605 21.0488 22.5803C21.0675 22.5495 21.1078 22.5468 21.1453 22.5455V22.5452Z" fill="black"/>
<path d="M17.8129 20.8313C17.8453 20.7117 17.9125 20.6074 17.9701 20.4897C17.9837 20.5868 17.9029 20.7687 17.8129 20.8313Z" fill="black"/>
<path d="M17.0485 15.094C17.1801 15.1261 17.2528 15.2017 17.3117 15.2941C17.2183 15.2441 17.1355 15.1811 17.0485 15.094Z" fill="black"/>
<path d="M8.29624 21.7746C8.35147 21.768 8.39852 21.7902 8.44353 21.817C8.50081 21.8515 8.56899 21.869 8.61468 21.923C8.5049 21.8816 8.3883 21.8538 8.29829 21.7729L8.29658 21.7746H8.29624Z" fill="black"/>
<path d="M17.6694 6.32263C17.7737 6.28486 17.8709 6.317 17.9872 6.35244C17.8658 6.37066 17.7679 6.34184 17.6694 6.32263Z" fill="black"/>
<path d="M24.2591 12.2569C24.225 12.182 24.1844 12.125 24.1947 12.0525C24.2346 12.1098 24.2949 12.1605 24.2591 12.2569Z" fill="black"/>
<path d="M16.2044 14.5144C16.1624 14.4959 16.1202 14.478 16.0786 14.4591C16.0622 14.4518 16.0499 14.4386 16.0595 14.421C16.0677 14.4054 16.084 14.4114 16.097 14.4177C16.141 14.4389 16.1829 14.4631 16.2044 14.5144Z" fill="black"/>
<path d="M13.1202 12.7429C13.1819 12.7605 13.2222 12.7969 13.2644 12.8294C13.2753 12.8377 13.2859 12.8512 13.2743 12.8655C13.2631 12.8791 13.2443 12.8734 13.2351 12.8655C13.1956 12.8297 13.1509 12.7982 13.1199 12.7433L13.1202 12.7429Z" fill="black"/>
<path d="M15.2054 24.3914H15.4461C15.367 24.4079 15.2876 24.4142 15.2054 24.3914Z" fill="black"/>
<path d="M14.8542 24.9993C14.7465 25.0133 14.6435 25.0086 14.5413 25.0027C14.2712 24.9877 14.0002 24.9785 13.7332 24.9294C13.7261 24.9281 13.7189 24.9271 13.7121 24.9255C13.6783 24.9172 13.6268 24.9142 13.6326 24.8748C13.6367 24.8446 13.6865 24.8632 13.7158 24.8632C13.7731 24.8629 13.8283 24.8622 13.886 24.8466C13.9589 24.8267 14.0315 24.8638 14.1055 24.8698C14.3466 24.8897 14.5801 24.9573 14.8215 24.9762C14.8328 24.9771 14.8457 24.9771 14.8546 24.9997L14.8542 24.9993Z" fill="black"/>
<path d="M13.4056 24.8371C13.3817 24.8344 13.3579 24.8331 13.3347 24.8281C13.3132 24.8235 13.2781 24.8248 13.2839 24.7934C13.289 24.7652 13.3221 24.7721 13.3446 24.7725C13.3657 24.7725 13.3872 24.7771 13.4083 24.7798C13.4346 24.7831 13.4687 24.7861 13.4649 24.8189C13.4608 24.8513 13.4274 24.8351 13.4056 24.8371Z" fill="black"/>
<path d="M15.2675 24.9959C15.3452 24.971 15.4093 24.9823 15.4731 24.9883C15.4103 25.0025 15.3479 25.027 15.2675 24.9959Z" fill="black"/>
<path d="M11.1349 24.1652C11.2011 24.1589 11.2532 24.1861 11.3126 24.2368C11.2352 24.2305 11.1844 24.2003 11.1349 24.1652Z" fill="black"/>
</g>
<defs>
<clipPath id="clip0_26_3">
<rect width="22.8516" height="22.8516" fill="white" transform="translate(3.57422 3.57422)"/>
</clipPath>
</defs>
</svg>
