<svg width="30" height="30" viewBox="0 0 30 30" fill="none" xmlns="http://www.w3.org/2000/svg">
<rect width="30" height="30" rx="15" fill="#5C5C5C"/>
<path d="M8.07192 16.1972L7.25836 15.4044C6.91388 15.0687 6.91388 14.5259 7.25836 14.1938L14.3788 7.25176C14.7233 6.91608 15.2803 6.91608 15.6212 7.25176L22.7416 14.1903C23.0861 14.5259 23.0861 15.0687 22.7416 15.4008L21.9281 16.1936C21.5799 16.5329 21.0119 16.5257 20.6711 16.1793L16.4677 11.8798V22.143C16.4677 22.6179 16.0756 23 15.5882 23H14.4155C13.9281 23 13.536 22.6179 13.536 22.143V11.8798L9.32891 16.1829C8.98809 16.5329 8.42006 16.54 8.07192 16.1972Z" fill="#D4D4D4"/>
</svg>
