<svg width="31" height="30" viewBox="0 0 31 30" fill="none" xmlns="http://www.w3.org/2000/svg">
<rect x="0.5" width="30" height="30" rx="15" fill="#654F4B"/>
<path d="M8.57192 16.1972L7.75836 15.4044C7.41388 15.0687 7.41388 14.5259 7.75836 14.1938L14.8788 7.25176C15.2233 6.91608 15.7803 6.91608 16.1212 7.25176L23.2416 14.1903C23.5861 14.5259 23.5861 15.0687 23.2416 15.4008L22.4281 16.1936C22.0799 16.5329 21.5119 16.5257 21.1711 16.1793L16.9677 11.8798V22.143C16.9677 22.6179 16.5756 23 16.0882 23H14.9155C14.4281 23 14.036 22.6179 14.036 22.143V11.8798L9.82891 16.1829C9.48809 16.5329 8.92006 16.54 8.57192 16.1972Z" fill="#ACB519"/>
</svg>
